{
    "asset" : {
        "generator" : "Khronos glTF Blender I/O v3.3.32",
        "version" : "2.0"
    },
    "extensionsUsed" : [
        "KHR_materials_clearcoat",
        "KHR_materials_transmission"
    ],
    "scene" : 0,
    "scenes" : [
        {
            "name" : "Scene",
            "nodes" : [
                0,
                1
            ]
        }
    ],
    "nodes" : [
        {
            "mesh" : 0,
            "name" : "ToyCar"
        },
        {
            "mesh" : 1,
            "name" : "Glass"
        }
    ],
    "materials" : [
        {
            "doubleSided" : true,
            "emissiveFactor" : [
                1,
                1,
                1
            ],
            "emissiveTexture" : {
                "index" : 0
            },
            "extensions" : {
                "KHR_materials_clearcoat" : {
                    "clearcoatFactor" : 1,
                    "clearcoatRoughnessFactor" : 0,
                    "clearcoatTexture" : {
                        "index" : 1
                    }
                }
            },
            "name" : "ToyCar",
            "normalTexture" : {
                "index" : 2
            },
            "occlusionTexture" : {
                "index" : 3
            },
            "pbrMetallicRoughness" : {
                "baseColorTexture" : {
                    "index" : 4
                },
                "metallicRoughnessTexture" : {
                    "index" : 3
                }
            }
        },
        {
            "extensions" : {
                "KHR_materials_transmission" : {
                    "transmissionFactor" : 1
                }
            },
            "name" : "Glass",
            "pbrMetallicRoughness" : {
                "baseColorFactor" : [
                    0.30000001192092896,
                    0.800000011920929,
                    0.30000001192092896,
                    1
                ],
                "metallicFactor" : 0,
                "roughnessFactor" : 0
            }
        }
    ],
    "meshes" : [
        {
            "name" : "ToyCar",
            "primitives" : [
                {
                    "attributes" : {
                        "POSITION" : 0,
                        "NORMAL" : 1,
                        "TEXCOORD_0" : 2
                    },
                    "indices" : 3,
                    "material" : 0
                }
            ]
        },
        {
            "name" : "Glass",
            "primitives" : [
                {
                    "attributes" : {
                        "POSITION" : 4,
                        "NORMAL" : 5,
                        "TEXCOORD_0" : 6
                    },
                    "indices" : 7,
                    "material" : 1
                }
            ]
        }
    ],
    "textures" : [
        {
            "sampler" : 0,
            "source" : 0
        },
        {
            "sampler" : 0,
            "source" : 1
        },
        {
            "sampler" : 0,
            "source" : 2
        },
        {
            "sampler" : 0,
            "source" : 3
        },
        {
            "sampler" : 0,
            "source" : 4
        }
    ],
    "images" : [
        {
            "mimeType" : "image/png",
            "name" : "ToyCar_emissive",
            "uri" : "ToyCar_emissive.png"
        },
        {
            "mimeType" : "image/png",
            "name" : "ToyCar_clearcoat",
            "uri" : "ToyCar_clearcoat.png"
        },
        {
            "mimeType" : "image/png",
            "name" : "ToyCar_normal",
            "uri" : "ToyCar_normal.png"
        },
        {
            "mimeType" : "image/png",
            "name" : "ToyCar_occlusion_roughness_metallic",
            "uri" : "ToyCar_occlusion_roughness_metallic.png"
        },
        {
            "mimeType" : "image/png",
            "name" : "ToyCar_basecolor",
            "uri" : "ToyCar_basecolor.png"
        }
    ],
    "accessors" : [
        {
            "bufferView" : 0,
            "componentType" : 5126,
            "count" : 67778,
            "max" : [
                0.21981343626976013,
                0.2964906692504883,
                0.44590017199516296
            ],
            "min" : [
                -0.21981346607208252,
                0.023321950808167458,
                -0.4560163617134094
            ],
            "type" : "VEC3"
        },
        {
            "bufferView" : 1,
            "componentType" : 5126,
            "count" : 67778,
            "type" : "VEC3"
        },
        {
            "bufferView" : 2,
            "componentType" : 5126,
            "count" : 67778,
            "type" : "VEC2"
        },
        {
            "bufferView" : 3,
            "componentType" : 5125,
            "count" : 266511,
            "type" : "SCALAR"
        },
        {
            "bufferView" : 4,
            "componentType" : 5126,
            "count" : 1523,
            "max" : [
                0.13491594791412354,
                0.28362584114074707,
                0.2141457051038742
            ],
            "min" : [
                -0.13491596281528473,
                0.21055550873279572,
                -0.21897365152835846
            ],
            "type" : "VEC3"
        },
        {
            "bufferView" : 5,
            "componentType" : 5126,
            "count" : 1523,
            "type" : "VEC3"
        },
        {
            "bufferView" : 6,
            "componentType" : 5126,
            "count" : 1523,
            "type" : "VEC2"
        },
        {
            "bufferView" : 7,
            "componentType" : 5123,
            "count" : 7482,
            "type" : "SCALAR"
        }
    ],
    "bufferViews" : [
        {
            "buffer" : 0,
            "byteLength" : 813336,
            "byteOffset" : 0,
            "target" : 34962
        },
        {
            "buffer" : 0,
            "byteLength" : 813336,
            "byteOffset" : 813336,
            "target" : 34962
        },
        {
            "buffer" : 0,
            "byteLength" : 542224,
            "byteOffset" : 1626672,
            "target" : 34962
        },
        {
            "buffer" : 0,
            "byteLength" : 1066044,
            "byteOffset" : 2168896,
            "target" : 34963
        },
        {
            "buffer" : 0,
            "byteLength" : 18276,
            "byteOffset" : 3234940,
            "target" : 34962
        },
        {
            "buffer" : 0,
            "byteLength" : 18276,
            "byteOffset" : 3253216,
            "target" : 34962
        },
        {
            "buffer" : 0,
            "byteLength" : 12184,
            "byteOffset" : 3271492,
            "target" : 34962
        },
        {
            "buffer" : 0,
            "byteLength" : 14964,
            "byteOffset" : 3283676,
            "target" : 34963
        }
    ],
    "samplers" : [
        {
            "magFilter" : 9729,
            "minFilter" : 9987
        }
    ],
    "buffers" : [
        {
            "byteLength" : 3298640,
            "uri" : "toy_car.bin"
        }
    ]
}
